<svg width="64" height="64" viewBox="0 0 64 64" fill="none" xmlns="http://www.w3.org/2000/svg">
<g filter="url(#filter0_dd_98_3557)">
<rect x="12" y="2" width="40" height="40" rx="8" fill="white"/>
<rect x="13" y="3" width="38" height="38" rx="7" stroke="#E5E5E5" stroke-width="2"/>
<path d="M34.2277 14.553C29.138 11.8682 24.5049 13.7814 22.835 16.3963C22.2883 17.2512 21.9017 18.8061 21.9167 20.0394C21.9467 22.5776 23.3516 25.4058 26.3831 28.259C30.1129 31.7688 33.9194 31.4621 35.1293 31.1671C36.6526 30.7955 37.6742 30.4788 37.5175 29.0589C37.4975 28.8723 37.3375 28.534 37.0959 28.3856C36.3209 27.9157 34.7027 27.6707 33.941 26.5391C32.8344 24.8908 34.211 24.8075 35.5293 25.5124C36.9409 26.2674 37.7475 26.739 39.1641 26.6091C40.2024 26.5141 41.7123 25.8874 41.9173 24.1358C42.1006 22.5509 39.7874 17.4862 34.2277 14.553ZM36.3059 23.1659C35.9159 23.7592 34.9527 23.5559 34.321 22.9959C33.6894 22.4359 33.6077 21.5027 34.0177 21.136C34.4344 20.7644 35.2176 20.8494 35.8493 21.4093C36.4792 21.971 36.6109 22.6993 36.3059 23.1659Z" fill="#AC5810"/>
<path d="M34.451 13.9481C29.3613 11.2632 24.7166 13.3398 23.0466 15.9546C21.3751 18.5712 22.1017 23.4159 26.6048 27.654C30.3346 31.1638 34.1411 30.8572 35.351 30.5622C36.8742 30.1905 37.9492 29.4656 37.2792 28.5406C36.8176 27.9023 35.1627 27.4207 34.1644 25.9341C33.0578 24.2859 34.4344 24.2025 35.7526 24.9075C37.1642 25.6625 37.9709 26.1341 39.3875 26.0041C40.4257 25.9091 41.9956 25.1058 41.949 23.4826C41.9007 21.8877 40.0107 16.8829 34.451 13.9481ZM36.7943 23.1193C36.3193 23.6326 35.3077 23.4926 34.5344 22.8093C33.7627 22.1243 33.5211 21.1544 33.9961 20.6427C34.471 20.1294 35.4827 20.2694 36.2559 20.9527C37.0292 21.636 37.2692 22.6076 36.7943 23.1193Z" fill="#F2A259"/>
<path d="M29.2697 25.4424C29.4613 24.9524 30.8246 24.4158 32.0778 25.3074C32.4295 25.5574 32.8695 26.194 32.8245 26.994C32.6778 29.6071 28.3897 27.6972 29.2697 25.4424Z" fill="#EEEEEE"/>
<path d="M25.2882 21.011C25.7265 20.311 26.7914 20.231 27.7231 20.836C28.553 21.3743 29.2463 22.6992 28.223 23.5658C27.6747 24.0308 26.7264 23.7425 26.1415 23.2942C25.4315 22.7526 24.8165 21.7643 25.2882 21.011Z" fill="#2686C6"/>
<path d="M30.9445 14.903C31.0795 14.3481 32.0212 14.2531 32.6878 14.5014C33.8394 14.9314 34.361 16.0713 33.9361 16.7063C33.3144 17.6345 31.9595 17.3162 31.4462 16.7846C30.5746 15.8846 30.8312 15.368 30.9445 14.903Z" fill="#FFEE58"/>
<path d="M37.6175 17.6196C38.5407 18.0396 38.6607 18.7045 38.4841 19.1895C38.3741 19.4895 38.1491 19.9011 37.6891 19.9378C36.9108 20.0011 36.8025 19.3578 36.2475 19.1812C35.7809 19.0328 35.5909 18.3945 35.7742 17.9662C35.9442 17.5712 36.4409 17.0829 37.6175 17.6196Z" fill="#7CB342"/>
<path d="M32.4944 27.4923C32.2645 27.7007 31.4662 27.9573 30.4529 27.324C30.1096 27.109 29.7812 26.7974 29.5963 26.3307C29.4513 25.9641 29.4829 25.6108 29.5479 25.4541C29.7346 25.0025 30.0196 24.9192 30.0196 24.9192C29.7329 24.8992 29.1913 25.2791 29.1013 25.7774C29.073 25.9341 28.8713 26.914 30.1696 27.8023C31.2878 28.569 32.9411 28.4973 32.8328 26.954C32.7828 27.144 32.6411 27.3607 32.4944 27.4923Z" fill="#B0B0B0"/>
<path d="M28.7097 22.2859C28.678 22.8809 27.9814 23.1942 27.5931 23.1958C26.4948 23.1975 25.5082 22.5075 25.4399 21.2793C25.4282 21.0593 25.5365 20.741 25.5365 20.741C25.3915 20.8026 25.1865 21.1159 25.1432 21.2926C24.8866 22.3525 25.9548 23.5875 27.0798 23.8375C27.6497 23.9641 28.368 23.7691 28.6297 23.2592C28.8163 22.8959 28.7797 22.5842 28.7097 22.2859Z" fill="#01579B"/>
<path d="M32.5528 16.7863C31.8062 16.7013 31.3929 16.213 31.2845 16.1014C30.9879 15.7914 30.8046 15.4897 30.9112 15.0431C30.9445 14.8997 31.0262 14.7164 31.1262 14.6131C31.0045 14.6531 30.8079 14.9147 30.7462 15.0564C30.6829 15.1981 30.4529 15.7297 30.9462 16.3847C31.2512 16.7913 31.7828 17.2496 32.5695 17.3596C33.1278 17.4379 33.5277 17.238 33.8611 16.913C34.0877 16.6913 34.1877 16.1913 34.0527 15.933C34.0744 16.1214 33.7294 16.9213 32.5528 16.7863Z" fill="#DF7F14"/>
<path d="M38.6942 18.8078C38.6259 18.5561 38.4309 18.2945 38.4109 18.2811C38.4959 18.4444 38.6642 18.9344 38.3109 19.4111C38.1325 19.651 37.5959 19.946 36.9626 19.4327C36.776 19.2811 36.626 19.1311 36.2893 19.0077C35.4344 18.6928 35.8077 17.8228 36.1043 17.5528C35.871 17.6745 35.6593 17.8928 35.571 18.2261C35.4477 18.6911 35.7527 19.1777 36.216 19.4111C36.7426 19.676 36.9126 20.1877 37.6342 20.1877C37.6709 20.1877 37.7092 20.186 37.7509 20.1827C38.2375 20.141 38.4425 19.9527 38.5909 19.7227C38.7725 19.4361 38.7775 19.1111 38.6942 18.8078Z" fill="#558B2F"/>
<path d="M25.6365 15.6313C26.0165 15.2563 26.6781 14.8596 27.6464 15.3646C28.2297 15.6679 28.908 16.0246 28.6013 17.2578C28.4114 18.0228 27.2981 18.4278 26.3681 17.5761C25.9998 17.2395 24.5999 16.6545 25.6365 15.6313Z" fill="#F44336"/>
<path d="M28.823 17.0928C28.8347 16.8012 28.6847 16.4462 28.633 16.3262C28.6413 16.5012 28.793 16.9429 28.098 17.5278C27.8564 17.7311 27.4181 17.8861 26.9398 17.6978C26.6948 17.6011 26.3431 17.1962 26.0915 17.0945C25.1565 16.7179 25.5598 15.7162 25.6915 15.5796C25.4798 15.7279 25.2999 15.9646 25.2332 16.3096C25.1465 16.7612 25.2265 17.1878 25.8465 17.6761C27.6064 19.0644 28.1464 18.2278 28.338 18.0145C28.5797 17.7545 28.8097 17.4145 28.823 17.0928Z" fill="#C62828"/>
<path d="M32.2894 14.5597C32.0445 14.4447 31.3445 14.478 31.2095 15.0613C31.1278 15.4113 31.3845 15.7663 31.6261 15.7246C31.9011 15.678 31.7545 15.2497 31.9195 15.128C32.1711 14.9447 32.6328 14.7214 32.2894 14.5597Z" fill="white"/>
<path d="M27.1264 15.4096C26.8847 15.2496 26.1131 15.248 25.8814 15.8396C25.7415 16.1946 25.9598 16.6062 26.2214 16.5996C26.5197 16.5929 26.3764 16.2412 26.6247 16.0179C26.9381 15.7363 27.4647 15.6329 27.1264 15.4096Z" fill="white"/>
<path d="M27.0114 20.7493C26.7831 20.6043 26.1065 20.5476 25.8265 21.0776C25.6215 21.4676 25.9031 21.8976 26.1481 21.8859C26.4264 21.8726 26.3331 21.4292 26.5114 21.3293C26.7831 21.1776 27.3314 20.9526 27.0114 20.7493Z" fill="white"/>
<path d="M30.8995 25.1874C30.6545 25.0725 29.9545 25.1058 29.8195 25.6891C29.7379 26.0391 29.9945 26.394 30.2362 26.3524C30.5112 26.3057 30.3645 25.8774 30.5295 25.7557C30.7795 25.5724 31.2411 25.3491 30.8995 25.1874Z" fill="white"/>
<path d="M37.1792 17.6746C36.9592 17.5179 36.2642 17.4262 36.0276 17.9762C35.8859 18.3062 36.0742 18.7012 36.3192 18.7028C36.5975 18.7045 36.5292 18.2579 36.7142 18.1679C36.9925 18.0329 37.4875 17.8946 37.1792 17.6746Z" fill="white"/>
</g>
<defs>
<filter id="filter0_dd_98_3557" x="0" y="0" width="64" height="64" filterUnits="userSpaceOnUse" color-interpolation-filters="sRGB">
<feFlood flood-opacity="0" result="BackgroundImageFix"/>
<feColorMatrix in="SourceAlpha" type="matrix" values="0 0 0 0 0 0 0 0 0 0 0 0 0 0 0 0 0 0 127 0" result="hardAlpha"/>
<feMorphology radius="4" operator="erode" in="SourceAlpha" result="effect1_dropShadow_98_3557"/>
<feOffset dy="4"/>
<feGaussianBlur stdDeviation="3"/>
<feComposite in2="hardAlpha" operator="out"/>
<feColorMatrix type="matrix" values="0 0 0 0 0 0 0 0 0 0 0 0 0 0 0 0 0 0 0.1 0"/>
<feBlend mode="normal" in2="BackgroundImageFix" result="effect1_dropShadow_98_3557"/>
<feColorMatrix in="SourceAlpha" type="matrix" values="0 0 0 0 0 0 0 0 0 0 0 0 0 0 0 0 0 0 127 0" result="hardAlpha"/>
<feMorphology radius="3" operator="erode" in="SourceAlpha" result="effect2_dropShadow_98_3557"/>
<feOffset dy="10"/>
<feGaussianBlur stdDeviation="7.5"/>
<feComposite in2="hardAlpha" operator="out"/>
<feColorMatrix type="matrix" values="0 0 0 0 0 0 0 0 0 0 0 0 0 0 0 0 0 0 0.1 0"/>
<feBlend mode="normal" in2="effect1_dropShadow_98_3557" result="effect2_dropShadow_98_3557"/>
<feBlend mode="normal" in="SourceGraphic" in2="effect2_dropShadow_98_3557" result="shape"/>
</filter>
</defs>
</svg>
