<svg width="64" height="64" viewBox="0 0 64 64" fill="none" xmlns="http://www.w3.org/2000/svg">
<g filter="url(#filter0_dd_98_4123)">
<rect x="12" y="2" width="40" height="40" rx="8" fill="white"/>
<rect x="13" y="3" width="38" height="38" rx="7" stroke="#E5E5E5" stroke-width="2"/>
<g clip-path="url(#clip0_98_4123)">
<path d="M26.6665 24.6662L24.6666 21.9997H23.3333C22.5967 21.9997 22.0001 22.5963 22.0001 23.3329V30.6659C22.0001 31.4025 22.5967 31.9992 23.3333 31.9992H24.6666L26.6665 29.3326H29.9996V24.6662H26.6665Z" fill="#595858"/>
<path d="M24.4999 21.9997H23.9999V31.9992H24.4999V21.9997Z" fill="#3A3A3A"/>
<path d="M41.5173 23.5746L40.6657 23.9996H37.9991V25.9995H40.6657L41.5173 26.4245C41.7389 26.5344 41.9989 26.3745 41.9989 26.1261V23.8729C41.9989 23.6246 41.7389 23.4629 41.5173 23.5746Z" fill="#595858"/>
<path d="M36.6659 19.3333H31.9995V23.9997H36.6659V19.3333Z" fill="#3F3F3F"/>
<g opacity="0.5">
<path opacity="0.5" d="M27.0831 24.6662H26.5831V29.3326H27.0831V24.6662Z" fill="#787676"/>
</g>
<path d="M28.6246 24.6662H28.1246V29.3326H28.6246V24.6662Z" fill="#3A3A3A"/>
<path d="M29.333 22.6663C32.2784 22.6663 34.666 20.2787 34.666 17.3333C34.666 14.3879 32.2784 12.0002 29.333 12.0002C26.3876 12.0002 23.9999 14.3879 23.9999 17.3333C23.9999 20.2787 26.3876 22.6663 29.333 22.6663Z" fill="#504F4F"/>
<path d="M38.1658 22.6663C40.1907 22.6663 41.8323 21.0248 41.8323 18.9999C41.8323 16.9749 40.1907 15.3334 38.1658 15.3334C36.1409 15.3334 34.4993 16.9749 34.4993 18.9999C34.4993 21.0248 36.1409 22.6663 38.1658 22.6663Z" fill="#504F4F"/>
<path d="M38.6658 31.3326H29.9996C29.263 31.3326 28.6663 30.736 28.6663 29.9993V23.9997C28.6663 23.263 29.263 22.6664 29.9996 22.6664H38.6658C39.4024 22.6664 39.9991 23.263 39.9991 23.9997V29.9993C39.9991 30.736 39.4024 31.3326 38.6658 31.3326Z" fill="#504F4F"/>
<path d="M30.333 26.9994C30.5163 26.9994 30.6663 27.1494 30.6663 27.3327C30.6663 27.516 30.5163 27.666 30.333 27.666C30.1496 27.666 29.9996 27.516 29.9996 27.3327C29.9996 27.1494 30.1496 26.9994 30.333 26.9994ZM30.333 26.666C29.9646 26.666 29.6663 26.9644 29.6663 27.3327C29.6663 27.701 29.9646 27.9993 30.333 27.9993C30.7013 27.9993 30.9996 27.701 30.9996 27.3327C30.9996 26.9644 30.7013 26.666 30.333 26.666Z" fill="#3A3A3A"/>
<path d="M30.333 28.3327C30.5163 28.3327 30.6663 28.4827 30.6663 28.666C30.6663 28.8494 30.5163 28.9994 30.333 28.9994C30.1497 28.9994 29.9997 28.8494 29.9997 28.666C29.9997 28.4827 30.1497 28.3327 30.333 28.3327ZM30.333 27.9994C29.9647 27.9994 29.6664 28.2977 29.6664 28.666C29.6664 29.0344 29.9647 29.3327 30.333 29.3327C30.7013 29.3327 30.9996 29.0344 30.9996 28.666C30.9996 28.2977 30.7013 27.9994 30.333 27.9994Z" fill="#3A3A3A"/>
<path d="M31.9995 29.1659C31.7245 29.1659 31.4995 28.941 31.4995 28.666V27.3327C31.4995 27.0577 31.7245 26.8327 31.9995 26.8327H37.3325C37.6075 26.8327 37.8325 27.0577 37.8325 27.3327V28.666C37.8325 28.941 37.6075 29.1659 37.3325 29.1659H31.9995Z" fill="#504F4F"/>
<path d="M37.3326 27.0827C37.4709 27.0827 37.5826 27.1944 37.5826 27.3327V28.666C37.5826 28.8043 37.4709 28.916 37.3326 28.916H31.9995C31.8612 28.916 31.7495 28.8043 31.7495 28.666V27.3327C31.7495 27.1944 31.8612 27.0827 31.9995 27.0827H37.3326ZM37.3326 26.5828H31.9995C31.5862 26.5828 31.2496 26.9194 31.2496 27.3327V28.666C31.2496 29.0793 31.5862 29.4159 31.9995 29.4159H37.3326C37.7459 29.4159 38.0825 29.0793 38.0825 28.666V27.3327C38.0825 26.9194 37.7459 26.5828 37.3326 26.5828Z" fill="#3A3A3A"/>
<path d="M29.333 21.0831C31.404 21.0831 33.0828 19.4042 33.0828 17.3333C33.0828 15.2623 31.404 13.5835 29.333 13.5835C27.262 13.5835 25.5832 15.2623 25.5832 17.3333C25.5832 19.4042 27.262 21.0831 29.333 21.0831Z" fill="#504F4F"/>
<path d="M29.333 13.8335C31.2629 13.8335 32.8328 15.4035 32.8328 17.3334C32.8328 19.2633 31.2629 20.8332 29.333 20.8332C27.4031 20.8332 25.8332 19.2633 25.8332 17.3334C25.8332 15.4035 27.4031 13.8335 29.333 13.8335ZM29.333 13.3336C27.1248 13.3336 25.3332 15.1251 25.3332 17.3334C25.3332 19.5416 27.1248 21.3331 29.333 21.3331C31.5412 21.3331 33.3328 19.5416 33.3328 17.3334C33.3328 15.1251 31.5412 13.3336 29.333 13.3336Z" fill="#3A3A3A"/>
<path d="M38.1659 21.0831C39.3164 21.0831 40.2491 20.1504 40.2491 18.9999C40.2491 17.8493 39.3164 16.9166 38.1659 16.9166C37.0153 16.9166 36.0826 17.8493 36.0826 18.9999C36.0826 20.1504 37.0153 21.0831 38.1659 21.0831Z" fill="#504F4F"/>
<path d="M38.1659 17.1667C39.1775 17.1667 39.9991 17.9883 39.9991 18.9999C39.9991 20.0115 39.1775 20.8332 38.1659 20.8332C37.1542 20.8332 36.3326 20.0115 36.3326 18.9999C36.3326 17.9883 37.1542 17.1667 38.1659 17.1667ZM38.1659 16.6667C36.8776 16.6667 35.8326 17.7117 35.8326 18.9999C35.8326 20.2882 36.8776 21.3331 38.1659 21.3331C39.4541 21.3331 40.4991 20.2882 40.4991 18.9999C40.4991 17.7117 39.4541 16.6667 38.1659 16.6667Z" fill="#3A3A3A"/>
<path d="M29.333 18.6665C30.0693 18.6665 30.6662 18.0696 30.6662 17.3333C30.6662 16.5969 30.0693 16 29.333 16C28.5966 16 27.9997 16.5969 27.9997 17.3333C27.9997 18.0696 28.5966 18.6665 29.333 18.6665Z" fill="#636262"/>
<path d="M38.1658 20.3331C38.9021 20.3331 39.499 19.7362 39.499 18.9998C39.499 18.2635 38.9021 17.6666 38.1658 17.6666C37.4294 17.6666 36.8325 18.2635 36.8325 18.9998C36.8325 19.7362 37.4294 20.3331 38.1658 20.3331Z" fill="#636262"/>
<path d="M30.3329 27.666C30.517 27.666 30.6663 27.5168 30.6663 27.3327C30.6663 27.1486 30.517 26.9994 30.3329 26.9994C30.1489 26.9994 29.9996 27.1486 29.9996 27.3327C29.9996 27.5168 30.1489 27.666 30.3329 27.666Z" fill="url(#paint0_linear_98_4123)"/>
<path d="M30.3329 28.9994C30.517 28.9994 30.6663 28.8501 30.6663 28.666C30.6663 28.482 30.517 28.3327 30.3329 28.3327C30.1489 28.3327 29.9996 28.482 29.9996 28.666C29.9996 28.8501 30.1489 28.9994 30.3329 28.9994Z" fill="url(#paint1_linear_98_4123)"/>
</g>
</g>
<defs>
<filter id="filter0_dd_98_4123" x="0" y="0" width="64" height="64" filterUnits="userSpaceOnUse" color-interpolation-filters="sRGB">
<feFlood flood-opacity="0" result="BackgroundImageFix"/>
<feColorMatrix in="SourceAlpha" type="matrix" values="0 0 0 0 0 0 0 0 0 0 0 0 0 0 0 0 0 0 127 0" result="hardAlpha"/>
<feMorphology radius="4" operator="erode" in="SourceAlpha" result="effect1_dropShadow_98_4123"/>
<feOffset dy="4"/>
<feGaussianBlur stdDeviation="3"/>
<feComposite in2="hardAlpha" operator="out"/>
<feColorMatrix type="matrix" values="0 0 0 0 0 0 0 0 0 0 0 0 0 0 0 0 0 0 0.1 0"/>
<feBlend mode="normal" in2="BackgroundImageFix" result="effect1_dropShadow_98_4123"/>
<feColorMatrix in="SourceAlpha" type="matrix" values="0 0 0 0 0 0 0 0 0 0 0 0 0 0 0 0 0 0 127 0" result="hardAlpha"/>
<feMorphology radius="3" operator="erode" in="SourceAlpha" result="effect2_dropShadow_98_4123"/>
<feOffset dy="10"/>
<feGaussianBlur stdDeviation="7.5"/>
<feComposite in2="hardAlpha" operator="out"/>
<feColorMatrix type="matrix" values="0 0 0 0 0 0 0 0 0 0 0 0 0 0 0 0 0 0 0.1 0"/>
<feBlend mode="normal" in2="effect1_dropShadow_98_4123" result="effect2_dropShadow_98_4123"/>
<feBlend mode="normal" in="SourceGraphic" in2="effect2_dropShadow_98_4123" result="shape"/>
</filter>
<linearGradient id="paint0_linear_98_4123" x1="30.3329" y1="26.9577" x2="30.3329" y2="27.6274" gradientUnits="userSpaceOnUse">
<stop stop-color="#FF1744"/>
<stop offset="1" stop-color="#D50000"/>
</linearGradient>
<linearGradient id="paint1_linear_98_4123" x1="30.3329" y1="28.2911" x2="30.3329" y2="28.961" gradientUnits="userSpaceOnUse">
<stop stop-color="#76FF03"/>
<stop offset="1" stop-color="#64DD17"/>
</linearGradient>
<clipPath id="clip0_98_4123">
<rect width="24" height="24" fill="white" transform="translate(20 10)"/>
</clipPath>
</defs>
</svg>
