<svg width="109" height="104" viewBox="0 0 109 104" fill="none" xmlns="http://www.w3.org/2000/svg">
<g filter="url(#filter0_dd_91_10760)">
<path d="M79 4H30C21.1634 4 14 11.1635 14 20V68.3414C14 77.1779 21.1635 84.3414 30 84.3414L46.6928 84.3414L54.5 94L62.3072 84.3414L79 84.3414C87.8366 84.3414 95 77.1779 95 68.3414V20C95 11.1634 87.8366 4 79 4Z" fill="white"/>
<path d="M79 4H30C21.1634 4 14 11.1635 14 20V68.3414C14 77.1779 21.1635 84.3414 30 84.3414L46.6928 84.3414L54.5 94L62.3072 84.3414L79 84.3414C87.8366 84.3414 95 77.1779 95 68.3414V20C95 11.1634 87.8366 4 79 4Z" stroke="#E5E5E5" stroke-width="4"/>
</g>
<defs>
<filter id="filter0_dd_91_10760" x="0" y="0" width="109" height="119.182" filterUnits="userSpaceOnUse" color-interpolation-filters="sRGB">
<feFlood flood-opacity="0" result="BackgroundImageFix"/>
<feColorMatrix in="SourceAlpha" type="matrix" values="0 0 0 0 0 0 0 0 0 0 0 0 0 0 0 0 0 0 127 0" result="hardAlpha"/>
<feMorphology radius="4" operator="erode" in="SourceAlpha" result="effect1_dropShadow_91_10760"/>
<feOffset dy="4"/>
<feGaussianBlur stdDeviation="3"/>
<feComposite in2="hardAlpha" operator="out"/>
<feColorMatrix type="matrix" values="0 0 0 0 0 0 0 0 0 0 0 0 0 0 0 0 0 0 0.1 0"/>
<feBlend mode="normal" in2="BackgroundImageFix" result="effect1_dropShadow_91_10760"/>
<feColorMatrix in="SourceAlpha" type="matrix" values="0 0 0 0 0 0 0 0 0 0 0 0 0 0 0 0 0 0 127 0" result="hardAlpha"/>
<feMorphology radius="3" operator="erode" in="SourceAlpha" result="effect2_dropShadow_91_10760"/>
<feOffset dy="10"/>
<feGaussianBlur stdDeviation="7.5"/>
<feComposite in2="hardAlpha" operator="out"/>
<feColorMatrix type="matrix" values="0 0 0 0 0 0 0 0 0 0 0 0 0 0 0 0 0 0 0.1 0"/>
<feBlend mode="normal" in2="effect1_dropShadow_91_10760" result="effect2_dropShadow_91_10760"/>
<feBlend mode="normal" in="SourceGraphic" in2="effect2_dropShadow_91_10760" result="shape"/>
</filter>
</defs>
</svg>
