<svg width="64" height="58" viewBox="0 0 64 58" fill="none" xmlns="http://www.w3.org/2000/svg">
<g filter="url(#filter0_dd_98_4161)">
<rect x="12" y="2" width="40" height="40" rx="8" fill="white"/>
<rect x="13" y="3" width="38" height="38" rx="7" stroke="#E5E5E5" stroke-width="2"/>
<g clip-path="url(#clip0_98_4161)">
<path d="M36.559 26.4324C36.2129 26.0591 35.7599 25.573 35.3633 25.153C34.5933 24.3422 33.6522 23.7356 33.6522 23.7356L32.087 25.4155C32.087 25.4155 32.6956 26.5354 33.4714 27.2024C33.8506 27.529 34.325 27.8615 34.7119 28.1181C34.6536 28.3106 34.5952 28.5615 34.57 28.8609C34.4961 29.7903 34.64 31.0152 34.6458 31.1513C34.6691 31.8629 34.6769 32.3899 34.6769 32.3899L35.9096 32.386L36.9362 27.8323C37.049 27.3326 36.909 26.8077 36.559 26.4324Z" fill="url(#paint0_linear_98_4161)"/>
<path d="M30.3449 23.7356C30.3449 23.7356 29.4039 24.3422 28.6359 25.155C28.2392 25.5749 27.7862 26.061 27.4401 26.4343C27.0901 26.8096 26.9501 27.3346 27.0629 27.8343L28.0895 32.3879L29.3222 32.3918C29.3222 32.3918 29.33 31.8649 29.3533 31.1533C29.3572 31.0172 29.503 29.7922 29.4291 28.8628C29.4058 28.5634 29.3455 28.3126 29.2872 28.1201C29.6741 27.8634 30.1486 27.531 30.5277 27.2043C31.3035 26.5374 31.9121 25.4175 31.9121 25.4175L30.3449 23.7356Z" fill="url(#paint1_linear_98_4161)"/>
<path d="M27.7783 31.1515L28.0914 32.3861L29.3241 32.39L29.3513 31.1515H27.7783Z" fill="#E0E0E0"/>
<path d="M29.748 32.876C29.7461 32.5027 29.4253 32.0789 29.4253 32.0789H27.9184L26.7557 32.4891C26.4563 32.6077 26.2579 32.8955 26.2579 33.2182V33.4671C26.2579 33.576 26.3454 33.6654 26.4543 33.6654L29.5244 33.6557C29.6489 33.6557 29.75 33.5546 29.75 33.4282L29.748 32.876Z" fill="#4568AD"/>
<path d="M34.6458 31.1515L34.6788 32.39L35.9096 32.3861L36.2207 31.1515H34.6458Z" fill="#E0E0E0"/>
<path d="M37.2433 32.4891L36.0825 32.0789H34.5757C34.5757 32.0789 34.2529 32.5027 34.2529 32.878L34.251 33.4302C34.251 33.5546 34.3521 33.6557 34.4765 33.6577L37.5447 33.6654C37.6536 33.6654 37.7411 33.5779 37.7411 33.4671V33.2182C37.7411 32.8955 37.5427 32.6077 37.2433 32.4891Z" fill="#4568AD"/>
<path d="M34.1112 17.5489C34.0353 17.4128 34.1325 17.2728 34.2939 17.1017C34.5525 16.8295 34.8345 16.1956 34.5739 15.552C34.5759 15.5481 34.5234 15.4393 34.5234 15.4373L34.4145 15.4315C34.3795 15.4257 33.1954 15.4237 32.0113 15.4237C30.8272 15.4237 29.6431 15.4257 29.6081 15.4315C29.6081 15.4315 29.4486 15.5481 29.4506 15.552C29.1881 16.1956 29.47 16.8275 29.7306 17.1017C29.8939 17.2728 29.9892 17.4128 29.9133 17.5489C29.8414 17.6811 29.6236 17.7005 29.6236 17.7005C29.6236 17.7005 29.6742 17.8366 29.7947 17.9105C29.9055 17.9786 30.0436 17.9941 30.1369 17.9961C30.1369 17.9961 30.5064 18.5074 31.4727 18.5074H32.0113H32.5499C33.5162 18.5074 33.8856 17.9961 33.8856 17.9961C33.9809 17.9941 34.117 17.9786 34.2278 17.9105C34.3484 17.8366 34.3989 17.7005 34.3989 17.7005C34.3989 17.7005 34.1831 17.683 34.1112 17.5489Z" fill="#543930"/>
<path d="M32.0114 18.5076V17.9398L33.7302 17.8037L33.8858 17.9962C33.8858 17.9962 33.5163 18.5076 32.55 18.5076H32.0114Z" fill="url(#paint2_radial_98_4161)"/>
<path d="M33.8818 17.7492C33.6252 17.3584 34.1948 17.2126 34.1948 17.2126C34.0957 17.3351 34.051 17.444 34.1093 17.549C34.1812 17.6812 34.399 17.7006 34.399 17.7006C34.399 17.7006 34.1035 17.9631 33.8818 17.7492Z" fill="url(#paint3_radial_98_4161)"/>
<path d="M34.574 15.5541C34.8287 16.1763 34.5603 16.818 34.3095 17.0882C34.2745 17.1252 34.1287 17.269 34.0957 17.3838C34.0957 17.3838 33.5221 16.5827 33.351 16.1141C33.316 16.0188 33.2849 15.9216 33.281 15.8205C33.2771 15.7447 33.2887 15.6552 33.3335 15.5911C33.3879 15.5114 34.5467 15.49 34.5467 15.49C34.5448 15.488 34.574 15.5541 34.574 15.5541Z" fill="url(#paint4_radial_98_4161)"/>
<path d="M29.4506 15.5541C29.1959 16.1763 29.4642 16.8179 29.715 17.0882C29.75 17.1251 29.8959 17.269 29.9289 17.3837C29.9289 17.3837 30.5025 16.5826 30.6736 16.1141C30.7086 16.0188 30.7397 15.9216 30.7436 15.8205C30.7475 15.7446 30.7358 15.6552 30.6911 15.591C30.6367 15.5113 30.5744 15.5327 30.485 15.5327C30.312 15.5327 29.5537 15.488 29.4953 15.488C29.4973 15.488 29.4506 15.5541 29.4506 15.5541Z" fill="url(#paint5_radial_98_4161)"/>
<path d="M32.0133 18.5076V17.9398L30.2945 17.8037L30.139 17.9962C30.139 17.9962 30.5084 18.5076 31.4747 18.5076H32.0133Z" fill="url(#paint6_radial_98_4161)"/>
<path d="M30.1448 17.7492C30.4034 17.3584 29.8317 17.2126 29.8317 17.2126C29.9309 17.3351 29.9756 17.444 29.9173 17.549C29.8453 17.6812 29.6276 17.7006 29.6276 17.7006C29.6276 17.7006 29.9212 17.9631 30.1448 17.7492Z" fill="url(#paint7_radial_98_4161)"/>
<path d="M38.272 14.051L37.3893 13.6057C36.6835 14.2979 36.3491 14.8909 36.0341 15.9234C35.3672 16.2403 34.7916 16.8217 34.4183 17.4225C34.0217 17.9688 33.7728 18.2721 33.487 18.8146C33.2712 19.2268 33.4267 19.6857 33.8175 19.9715C34.0022 20.1076 34.152 20.1659 34.2978 20.1659C34.4611 20.1659 34.6167 20.0901 34.8072 19.9618C35.2097 19.7323 35.756 19.1257 36.106 18.6746L36.0963 18.6688C36.5416 18.1146 36.9907 17.333 37.2143 16.5942C37.8404 15.9409 38.272 15.0834 38.272 14.051Z" fill="url(#paint8_linear_98_4161)"/>
<path d="M30.5122 18.8165C30.2264 18.2741 29.9775 17.9708 29.5809 17.4244C29.2075 16.8236 28.632 16.2422 27.9651 15.9253C27.6482 14.889 27.3138 14.2979 26.608 13.6057L25.7272 14.0529C25.7272 15.0854 26.1588 15.9409 26.7849 16.5961C27.0085 17.333 27.4557 18.1166 27.9029 18.6707L27.8932 18.6766C28.2432 19.1276 28.7895 19.7343 29.192 19.9637C29.3825 20.092 29.5381 20.1679 29.7014 20.1679C29.8472 20.1679 29.9969 20.1076 30.1817 19.9734C30.5705 19.6876 30.728 19.2268 30.5122 18.8165Z" fill="url(#paint9_linear_98_4161)"/>
<path d="M34.4183 17.4225C34.0702 17.9008 33.8369 18.1944 33.5919 18.6241C33.3528 18.5619 33.0825 18.5269 32.7831 18.5269H31.1946C30.901 18.5269 30.6385 18.5619 30.4052 18.6221C30.1602 18.1924 29.9268 17.8988 29.5788 17.4205L27.8931 18.6746C28.243 19.1257 28.9975 19.9618 28.9975 19.9618C29.1588 20.7512 30.0882 23.8894 30.0882 23.8894H34.0294L35.0346 19.9462C35.0346 19.9462 35.7638 19.1141 36.106 18.6766L34.4183 17.4225Z" fill="url(#paint10_linear_98_4161)"/>
<path d="M31.3248 18.6629C31.3248 18.9857 31.599 19.2482 31.9373 19.2482H32.0598C32.3981 19.2482 32.6723 18.9857 32.6723 18.6629V17.9493H31.3248V18.6629Z" fill="#E59600"/>
<path d="M30.3547 17.0607C30.0533 17.0607 29.8064 16.7963 29.8064 16.4716C29.8064 16.1469 30.0514 15.8824 30.3547 15.8824H33.6445C33.9459 15.8824 34.1928 16.1469 34.1928 16.4716C34.1928 16.7963 33.9478 17.0607 33.6445 17.0607H30.3547Z" fill="#E59600"/>
<path d="M31.9996 13.4346C30.9574 13.4346 29.993 14.5487 29.993 16.1508C29.993 17.7452 30.9866 18.5326 31.9996 18.5326C33.0126 18.5326 34.0062 17.7452 34.0062 16.1508C34.0062 14.5487 33.0418 13.4346 31.9996 13.4346Z" fill="#FFCA28"/>
<path d="M32.231 16.8449C32.2251 16.843 32.2174 16.8411 32.2115 16.8391H31.7857C31.7799 16.8391 31.7721 16.8411 31.7663 16.8449C31.7274 16.8605 31.706 16.9013 31.7254 16.9441C31.7429 16.9869 31.8285 17.1055 31.9996 17.1055C32.1707 17.1055 32.2543 16.9869 32.2737 16.9441C32.2912 16.9013 32.2699 16.8605 32.231 16.8449Z" fill="#E59600"/>
<path d="M32.5051 17.3272C32.3126 17.4419 31.6846 17.4419 31.494 17.3272C31.3832 17.2611 31.2704 17.3622 31.3171 17.4613C31.3618 17.5605 31.706 17.788 32.0015 17.788C32.297 17.788 32.6373 17.5605 32.682 17.4613C32.7267 17.3622 32.6159 17.2611 32.5051 17.3272Z" fill="#795548"/>
<path d="M31.0235 16.5903C31.1845 16.5903 31.3151 16.4545 31.3151 16.287C31.3151 16.1194 31.1845 15.9836 31.0235 15.9836C30.8624 15.9836 30.7318 16.1194 30.7318 16.287C30.7318 16.4545 30.8624 16.5903 31.0235 16.5903Z" fill="#404040"/>
<path d="M32.9754 16.5903C33.1365 16.5903 33.2671 16.4545 33.2671 16.287C33.2671 16.1194 33.1365 15.9836 32.9754 15.9836C32.8144 15.9836 32.6838 16.1194 32.6838 16.287C32.6838 16.4545 32.8144 16.5903 32.9754 16.5903Z" fill="#404040"/>
<path d="M31.457 15.7426C31.4006 15.6687 31.2723 15.5618 31.0234 15.5618C30.7726 15.5618 30.6443 15.6687 30.5898 15.7426C30.5646 15.7756 30.5723 15.8126 30.5879 15.8359C30.6035 15.8573 30.6501 15.8768 30.7026 15.8593C30.7551 15.8418 30.8543 15.7893 31.0234 15.7873C31.1926 15.7893 31.2937 15.8398 31.3443 15.8593C31.3967 15.8768 31.4434 15.8573 31.459 15.8359C31.4765 15.8126 31.4823 15.7756 31.457 15.7426Z" fill="#6D4C41"/>
<path d="M33.409 15.7425C33.3527 15.6686 33.2243 15.5617 32.9755 15.5617C32.7246 15.5617 32.5963 15.6686 32.5419 15.7425C32.5166 15.7756 32.5244 15.8125 32.5399 15.8359C32.5555 15.8572 32.6021 15.8767 32.6546 15.8592C32.7071 15.8417 32.8063 15.7892 32.9755 15.7873C33.1446 15.7892 33.2457 15.8397 33.2963 15.8592C33.3488 15.8767 33.3954 15.8572 33.411 15.8359C33.4285 15.8125 33.4343 15.7756 33.409 15.7425Z" fill="#6D4C41"/>
<path d="M34.4222 14.2589C34.2763 14.0373 33.9458 13.7398 33.6522 13.7204C33.6055 13.4365 33.3003 13.1954 33.0067 13.104C32.2115 12.8512 31.6943 13.1351 31.4143 13.2868C31.3559 13.3179 30.9826 13.5259 30.7221 13.3762C30.5588 13.2829 30.5607 13.0321 30.5607 13.0321C30.5607 13.0321 30.0474 13.2265 30.2224 13.7709C30.0474 13.7787 29.816 13.8526 29.6935 14.0995C29.5477 14.3931 29.6002 14.64 29.641 14.7586C29.4894 14.887 29.2988 15.1611 29.4291 15.5169C29.5283 15.7853 29.921 15.9077 29.921 15.9077C29.8938 16.3899 29.9832 16.6855 30.0299 16.806C30.0377 16.8274 30.0688 16.8255 30.0727 16.8041C30.133 16.5649 30.3352 15.7347 30.3157 15.5889C30.3157 15.5889 30.9982 15.4528 31.6476 14.9745C31.7798 14.8772 31.9237 14.7936 32.0754 14.7334C32.892 14.4087 33.0631 14.9628 33.0631 14.9628C33.0631 14.9628 33.6289 14.8539 33.8 15.6414C33.8641 15.9369 33.9089 16.4074 33.9439 16.738C33.9458 16.7613 33.9789 16.7671 33.9866 16.7438C34.043 16.6135 34.1577 16.353 34.185 16.0886C34.1947 15.9952 34.4455 15.8728 34.5544 15.4722C34.706 14.9317 34.5272 14.4184 34.4222 14.2589Z" fill="#543930"/>
<path d="M34.1909 16.0847C34.2007 15.9914 34.4515 15.8689 34.5604 15.4684C34.572 15.4256 34.5817 15.3828 34.5895 15.3381C34.677 14.852 34.5195 14.4048 34.4223 14.2571C34.2862 14.051 33.9946 13.7826 33.7185 13.7263C33.6951 13.7224 33.6718 13.7204 33.6485 13.7185C33.6485 13.7185 33.6679 13.8468 33.6154 13.9499C33.5474 14.084 33.4113 14.1151 33.4113 14.1151C34.1307 14.8384 34.0801 15.4412 34.1909 16.0847Z" fill="url(#paint11_radial_98_4161)"/>
<path d="M31.5894 13.1935C31.5233 13.2246 31.465 13.2576 31.4144 13.2848C31.3561 13.316 30.9828 13.524 30.7222 13.3743C30.5608 13.2829 30.5608 13.0379 30.5608 13.0301C30.4869 13.1254 30.2633 13.7982 30.9166 13.8429C31.1986 13.8623 31.3736 13.6154 31.4766 13.4073C31.5136 13.3335 31.5738 13.2226 31.5894 13.1935Z" fill="url(#paint12_radial_98_4161)"/>
<path d="M32.9231 13.0768C33.3626 13.1954 33.5784 13.419 33.6503 13.7184C33.6717 13.8059 33.697 14.6245 32.1337 13.6951C31.5524 13.349 31.7118 13.1312 31.7799 13.1079C32.0443 13.0126 32.4312 12.9446 32.9231 13.0768Z" fill="url(#paint13_radial_98_4161)"/>
<path d="M30.5588 13.0301C30.5568 13.0301 30.5568 13.0301 30.5549 13.032C30.4985 13.0553 30.0591 13.2595 30.2224 13.7689L30.691 13.8447C30.2788 13.4248 30.5607 13.0281 30.5588 13.0301C30.5607 13.0301 30.5607 13.0281 30.5588 13.0301Z" fill="url(#paint14_radial_98_4161)"/>
<path d="M30.5142 13.8156L30.2245 13.769C30.2128 13.769 30.1739 13.7729 30.1545 13.7748C29.9912 13.7981 29.8006 13.8818 29.6956 14.0976C29.5848 14.329 29.5867 14.5292 29.6179 14.6614C29.6256 14.7062 29.6451 14.7567 29.6451 14.7567C29.6451 14.7567 29.789 14.6206 30.1292 14.6128L30.5142 13.8156Z" fill="url(#paint15_radial_98_4161)"/>
<path d="M29.6295 14.7684C29.4875 14.8948 29.295 15.1767 29.437 15.5267C29.5439 15.7912 29.9231 15.9059 29.9231 15.9059C29.9231 15.9078 29.9989 15.9292 30.0378 15.9292L30.1272 14.6109C29.9444 14.6109 29.7695 14.6654 29.6567 14.7432C29.6586 14.7471 29.6295 14.7665 29.6295 14.7684Z" fill="url(#paint16_radial_98_4161)"/>
<path d="M27.3837 12.892C27.2087 12.789 26.3785 12.6587 25.8049 12.6587C25.4899 12.6587 25.2546 12.6995 25.2546 12.8065L25.2527 13.4734C25.2507 14.1442 25.6882 14.6925 26.4115 14.6944H26.4135C27.724 14.6944 27.827 13.1506 27.3837 12.892Z" fill="url(#paint17_radial_98_4161)"/>
<path d="M27.337 13.6038C27.3293 13.629 27.2612 13.6543 27.1873 13.6737H27.1854C27.0998 13.6951 26.9987 13.7379 26.8101 13.7904C26.5476 13.8643 26.5262 14.2162 26.5262 14.2162C26.4776 14.0335 26.6021 13.7126 26.7751 13.6388V13.6368C26.8568 13.5979 26.9482 13.5765 27.0454 13.561C27.0609 13.559 27.0998 13.5571 27.1484 13.559H27.1504C27.2379 13.561 27.3468 13.5726 27.337 13.6038Z" fill="#EDA600"/>
<path d="M43.6655 13.1525C43.6655 13.4208 43.5236 13.6386 43.3467 13.6386H20.6523C20.4773 13.6386 20.3334 13.4208 20.3334 13.1525C20.3334 12.8841 20.4773 12.6664 20.6523 12.6664H43.3447C43.5217 12.6664 43.6655 12.8841 43.6655 13.1525Z" fill="url(#paint18_linear_98_4161)"/>
<path d="M23.6231 15.9698C24.2667 15.9698 24.7898 15.4468 24.7898 14.8032V11.527C24.7898 10.8834 24.2667 10.3604 23.6231 10.3604C22.9796 10.3604 22.4565 10.8834 22.4565 11.527V14.8032C22.4565 15.4468 22.9776 15.9698 23.6231 15.9698Z" fill="url(#paint19_radial_98_4161)"/>
<path d="M40.3758 15.9698C39.7322 15.9698 39.2092 15.4468 39.2092 14.8032V11.527C39.2092 10.8834 39.7322 10.3604 40.3758 10.3604C41.0193 10.3604 41.5424 10.8834 41.5424 11.527V14.8032C41.5424 15.4468 41.0213 15.9698 40.3758 15.9698Z" fill="url(#paint20_radial_98_4161)"/>
<path d="M21.5001 14.8479C21.9298 14.8479 22.2778 14.4999 22.2778 14.0702V12.26C22.2778 11.8303 21.9298 11.4822 21.5001 11.4822C21.0704 11.4822 20.7224 11.8303 20.7224 12.26V14.0702C20.7224 14.4999 21.0704 14.8479 21.5001 14.8479Z" fill="url(#paint21_radial_98_4161)"/>
<path d="M42.4989 14.8479C42.0692 14.8479 41.7212 14.4999 41.7212 14.0702V12.26C41.7212 11.8303 42.0692 11.4822 42.4989 11.4822C42.9286 11.4822 43.2767 11.8303 43.2767 12.26V14.0702C43.2767 14.4999 42.9286 14.8479 42.4989 14.8479Z" fill="url(#paint22_radial_98_4161)"/>
<path d="M27.0628 13.6387H25.2487L25.0931 12.6665H27.0628V13.6387Z" fill="#646464"/>
<path d="M27.5703 12.4799L27.5139 12.7813L27.5022 12.8474L27.475 12.9932L27.4594 13.0788C27.4264 13.2538 27.2728 13.3763 27.1017 13.3763C27.0803 13.3763 27.057 13.3743 27.0356 13.3704C26.9461 13.3549 26.8703 13.3082 26.8178 13.2382C26.7536 13.2966 26.67 13.3296 26.5787 13.3296C26.5242 13.3296 26.3531 13.2538 26.324 13.2246C26.3162 13.2168 26.3084 13.2091 26.3026 13.1993C26.2948 13.2052 26.287 13.2129 26.2792 13.2188C26.2753 13.2207 26.1645 13.2868 26.0517 13.2849C25.9467 13.2829 25.8418 13.2188 25.8106 13.1877C25.7795 13.2324 25.7368 13.2713 25.6862 13.2985C25.6512 13.3199 25.6123 13.3335 25.5695 13.3393C25.5501 13.3432 25.5307 13.3452 25.5112 13.3452C25.4334 13.3452 25.3576 13.3199 25.2954 13.2732C25.2137 13.2149 25.1612 13.1293 25.1476 13.0321L25.1223 12.8669V12.8649L25.0893 12.653C25.0737 12.5558 25.0971 12.4585 25.1554 12.3788C25.2137 12.2972 25.2993 12.2447 25.3965 12.2311C25.4198 12.2272 25.4432 12.2252 25.4665 12.2272C25.4723 12.2272 25.4801 12.2272 25.4859 12.2291C25.5482 12.233 25.6104 12.2544 25.6648 12.2933C25.6726 12.2991 25.6784 12.3049 25.6843 12.3088C25.6959 12.2641 25.7193 12.2213 25.7484 12.1863C25.7562 12.1747 25.764 12.1649 25.7737 12.1552C25.7854 12.1416 25.7951 12.1358 25.799 12.1319C25.8009 12.1319 25.8009 12.1299 25.8009 12.1299C25.8593 12.0794 25.9351 12.0483 26.0187 12.0444C26.0459 12.0425 26.0731 12.0444 26.0984 12.0483C26.1179 12.0522 26.1353 12.058 26.1528 12.0638C26.2034 12.0794 26.2481 12.1047 26.287 12.1397C26.2987 12.1241 26.3123 12.1086 26.3259 12.0949C26.3453 12.0755 26.3667 12.058 26.3881 12.0444C26.3998 12.0366 26.4134 12.0308 26.4251 12.023C26.4737 11.9997 26.5281 11.988 26.5845 11.99C26.6467 11.99 26.707 12.0055 26.7614 12.0366C26.7711 12.0405 26.7789 12.0463 26.7867 12.0522C26.8061 12.0658 26.8236 12.0813 26.8411 12.0988C26.8723 12.1299 26.8975 12.1669 26.915 12.2058C26.9384 12.1708 26.9695 12.1377 27.0064 12.1124C27.0142 12.1066 27.0239 12.1008 27.0336 12.0969C27.0725 12.0755 27.1134 12.06 27.1561 12.0541C27.197 12.0483 27.2378 12.0483 27.2786 12.0561C27.3758 12.0736 27.4575 12.128 27.5139 12.2077C27.5683 12.2894 27.5878 12.3847 27.5703 12.4799Z" fill="url(#paint23_linear_98_4161)"/>
<path d="M34.2259 23.967L34.0898 23.5859H30.0125L29.9386 23.9748L28.1887 25.5128L30.1408 27.5407C30.1408 27.5407 31.461 26.4383 31.5797 26.3333C31.7099 26.2166 31.8674 26.203 31.9627 26.2011C32.058 26.203 32.2155 26.2166 32.3457 26.3333C32.4643 26.4402 33.7845 27.5407 33.7845 27.5407L35.8105 25.5128L34.2259 23.967Z" fill="#7C7C7C"/>
<path d="M27.5334 12.6897C27.4654 12.8647 27.0959 12.6975 26.9559 12.6256C26.9346 12.4545 26.9132 12.3417 26.9132 12.3417C26.9132 12.3417 26.9132 12.3417 26.9132 12.3437C26.919 12.4409 26.8218 12.5109 26.7304 12.4759C26.6273 12.435 26.5087 12.402 26.4232 12.4059C26.3901 12.4078 26.3629 12.4136 26.3376 12.4214C26.3143 12.3456 26.3007 12.295 26.3007 12.295C26.3007 12.295 26.3007 12.3028 26.3007 12.3164C26.2968 12.3825 26.2657 12.4448 26.2113 12.4817C25.9993 12.6197 25.9449 12.8803 26.1957 13.1583C26.1102 13.2167 25.976 13.2128 25.9002 13.135C25.8029 13.0378 25.7621 12.7286 25.7057 12.4992C25.7232 12.6625 25.7718 12.9542 25.7485 13.0669C25.7193 13.2031 25.5832 13.2886 25.4471 13.2555C25.3285 13.2264 25.1885 13.1311 25.1205 12.8686L25.1458 13.0339C25.1594 13.1311 25.2119 13.2167 25.2935 13.275C25.3557 13.3217 25.4316 13.3469 25.5094 13.3469C25.5288 13.3469 25.5482 13.345 25.5677 13.3411C25.6046 13.3353 25.6377 13.3236 25.6688 13.308C25.6707 13.3061 25.6746 13.3061 25.6766 13.3042C25.6785 13.3022 25.6824 13.3022 25.6843 13.3003C25.766 13.2555 25.8068 13.1933 25.8088 13.1894C25.8185 13.205 25.9196 13.2886 26.0421 13.2886C26.2113 13.2886 26.2774 13.2206 26.2774 13.2206C26.2929 13.2303 26.3085 13.238 26.324 13.2439C26.3357 13.2478 26.7907 13.4014 26.7732 13.5744C26.7712 13.5958 26.7732 13.6172 26.7751 13.6386V13.6464C26.7751 13.6464 26.7751 13.6464 26.7751 13.6483C26.781 13.6989 26.7926 13.7475 26.8101 13.7922L26.8121 13.7902C26.8587 13.7533 26.9715 13.7844 26.9812 13.7183C27.0182 13.4675 27.0084 13.1681 26.9851 12.9114L27.4751 12.9931L27.5334 12.6897Z" fill="#EDA600"/>
<path d="M27.6268 13.3237C27.5316 12.8007 26.8997 12.5829 26.6624 12.4993C26.6333 12.4896 26.1997 12.3865 26.1472 12.7715C26.1239 12.9387 26.2502 13.1215 26.4116 13.1837C26.853 13.3529 26.851 13.4462 26.851 13.5084C26.8491 13.6698 26.9385 13.975 27.0785 14.0664C27.1077 14.0859 27.1408 14.0975 27.1719 14.0975C27.1913 14.0975 27.2107 14.0937 27.2302 14.0859C27.5043 13.9712 27.6813 13.629 27.6268 13.3237Z" fill="url(#paint24_linear_98_4161)"/>
<path d="M36.6387 12.892C36.8137 12.789 37.6439 12.6587 38.2175 12.6587C38.5325 12.6587 38.7678 12.6995 38.7678 12.8065L38.7697 13.4734C38.7717 14.1442 38.3342 14.6925 37.6109 14.6944H37.6089C36.2985 14.6944 36.1935 13.1506 36.6387 12.892Z" fill="url(#paint25_radial_98_4161)"/>
<path d="M36.6854 13.6038C36.6932 13.629 36.7613 13.6543 36.8351 13.6737H36.8371C36.9226 13.6951 37.0237 13.7379 37.2123 13.7904C37.4748 13.8643 37.4962 14.2162 37.4962 14.2162C37.5448 14.0335 37.4204 13.7126 37.2473 13.6388V13.6368C37.1657 13.5979 37.0743 13.5765 36.9771 13.561C36.9615 13.559 36.9226 13.5571 36.874 13.559H36.8721C36.7846 13.561 36.6757 13.5726 36.6854 13.6038Z" fill="#EDA600"/>
<path d="M36.9596 12.6665H38.9292L38.7737 13.6387H36.9596V12.6665Z" fill="#646464"/>
<path d="M36.452 12.4799L36.5084 12.7813L36.5201 12.8474L36.5473 12.9932L36.5629 13.0788C36.5959 13.2538 36.7495 13.3763 36.9206 13.3763C36.942 13.3763 36.9653 13.3743 36.9867 13.3704C37.0762 13.3549 37.152 13.3082 37.2045 13.2382C37.2687 13.2966 37.3523 13.3296 37.4437 13.3296C37.4981 13.3296 37.6692 13.2538 37.6984 13.2246C37.7061 13.2168 37.7139 13.2091 37.7198 13.1993C37.7275 13.2052 37.7353 13.2129 37.7431 13.2188C37.747 13.2207 37.8578 13.2868 37.9706 13.2849C38.0756 13.2829 38.1786 13.2188 38.2117 13.1877C38.2428 13.2324 38.2856 13.2713 38.3361 13.2985C38.3711 13.3199 38.41 13.3335 38.4528 13.3393C38.4722 13.3432 38.4917 13.3452 38.5111 13.3452C38.5889 13.3452 38.6647 13.3199 38.7269 13.2732C38.8086 13.2149 38.8611 13.1293 38.8747 13.0321L38.9 12.8669V12.8649L38.933 12.653C38.9486 12.5558 38.9252 12.4585 38.8669 12.3788C38.8086 12.2972 38.723 12.2447 38.6258 12.2311C38.6025 12.2272 38.5792 12.2252 38.5558 12.2272C38.55 12.2272 38.5422 12.2272 38.5364 12.2291C38.4742 12.233 38.4119 12.2544 38.3575 12.2933C38.3497 12.2991 38.3439 12.3049 38.3381 12.3088C38.3264 12.2641 38.3031 12.2213 38.2739 12.1863C38.2661 12.1747 38.2583 12.1649 38.2486 12.1552C38.2369 12.1416 38.2272 12.1358 38.2233 12.1319C38.2214 12.1319 38.2214 12.1299 38.2214 12.1299C38.1631 12.0794 38.0872 12.0483 38.0036 12.0444C37.9764 12.0425 37.9492 12.0444 37.9239 12.0483C37.9045 12.0522 37.887 12.058 37.8695 12.0638C37.8189 12.0794 37.7742 12.1047 37.7353 12.1397C37.7236 12.1241 37.71 12.1086 37.6964 12.0949C37.677 12.0755 37.6556 12.058 37.6342 12.0444C37.6225 12.0366 37.6089 12.0308 37.5973 12.023C37.5487 11.9997 37.4942 11.988 37.4378 11.99C37.3756 11.99 37.3153 12.0055 37.2609 12.0366C37.2512 12.0405 37.2434 12.0463 37.2356 12.0522C37.2162 12.0658 37.1987 12.0813 37.1812 12.0988C37.1501 12.1299 37.1248 12.1669 37.1073 12.2058C37.084 12.1708 37.0528 12.1377 37.0159 12.1124C37.0081 12.1066 36.9984 12.1008 36.9887 12.0969C36.9498 12.0755 36.909 12.06 36.8662 12.0541C36.8254 12.0483 36.7845 12.0483 36.7437 12.0561C36.6465 12.0736 36.5648 12.128 36.5084 12.2077C36.454 12.2894 36.4345 12.3847 36.452 12.4799Z" fill="url(#paint26_linear_98_4161)"/>
<path d="M36.489 12.6897C36.5571 12.8647 36.9265 12.6975 37.0665 12.6256C37.0879 12.4545 37.1093 12.3417 37.1093 12.3417C37.1093 12.3417 37.1093 12.3417 37.1093 12.3437C37.1034 12.4409 37.2006 12.5109 37.292 12.4759C37.3951 12.435 37.5137 12.402 37.5992 12.4059C37.6323 12.4078 37.6595 12.4136 37.6848 12.4214C37.7081 12.3456 37.7217 12.295 37.7217 12.295C37.7217 12.295 37.7217 12.3028 37.7217 12.3164C37.7256 12.3825 37.7567 12.4448 37.8112 12.4817C38.0231 12.6197 38.0775 12.8803 37.8267 13.1583C37.9123 13.2167 38.0464 13.2128 38.1223 13.135C38.2195 13.0378 38.2603 12.7286 38.3167 12.4992C38.2992 12.6625 38.2506 12.9542 38.2739 13.0669C38.3011 13.2031 38.4392 13.2886 38.5753 13.2555C38.6939 13.2264 38.8339 13.1311 38.9019 12.8686L38.8767 13.0339C38.8631 13.1311 38.8106 13.2167 38.7289 13.275C38.6667 13.3217 38.5908 13.3469 38.5131 13.3469C38.4936 13.3469 38.4742 13.345 38.4547 13.3411C38.4178 13.3353 38.3847 13.3236 38.3536 13.308C38.3517 13.3061 38.3478 13.3061 38.3459 13.3042C38.3439 13.3022 38.34 13.3022 38.3381 13.3003C38.2564 13.2555 38.2156 13.1933 38.2136 13.1894C38.2039 13.205 38.1028 13.2886 37.9803 13.2886C37.8112 13.2886 37.7451 13.2206 37.7451 13.2206C37.7295 13.2303 37.7139 13.238 37.6984 13.2439C37.6848 13.2478 37.2337 13.4014 37.2493 13.5744C37.2512 13.5958 37.2493 13.6172 37.2473 13.6386V13.6464C37.2473 13.6464 37.2473 13.6464 37.2473 13.6483C37.2415 13.6989 37.2298 13.7475 37.2123 13.7922L37.2104 13.7902C37.1637 13.7533 37.0509 13.7844 37.0412 13.7183C37.0043 13.4675 37.014 13.1681 37.0373 12.9114L36.5473 12.9931L36.489 12.6897Z" fill="#EDA600"/>
<path d="M36.3958 13.3237C36.4911 12.8007 37.123 12.5829 37.3602 12.4993C37.3894 12.4896 37.823 12.3865 37.8755 12.7715C37.8988 12.9387 37.7724 13.1215 37.611 13.1837C37.1697 13.3529 37.1716 13.4462 37.1716 13.5084C37.1736 13.6698 37.0841 13.975 36.9441 14.0664C36.915 14.0859 36.8819 14.0975 36.8508 14.0975C36.8314 14.0975 36.8119 14.0937 36.7925 14.0859C36.5183 13.9712 36.3414 13.629 36.3958 13.3237Z" fill="url(#paint27_linear_98_4161)"/>
</g>
</g>
<defs>
<filter id="filter0_dd_98_4161" x="0" y="0" width="64" height="64" filterUnits="userSpaceOnUse" color-interpolation-filters="sRGB">
<feFlood flood-opacity="0" result="BackgroundImageFix"/>
<feColorMatrix in="SourceAlpha" type="matrix" values="0 0 0 0 0 0 0 0 0 0 0 0 0 0 0 0 0 0 127 0" result="hardAlpha"/>
<feMorphology radius="4" operator="erode" in="SourceAlpha" result="effect1_dropShadow_98_4161"/>
<feOffset dy="4"/>
<feGaussianBlur stdDeviation="3"/>
<feComposite in2="hardAlpha" operator="out"/>
<feColorMatrix type="matrix" values="0 0 0 0 0 0 0 0 0 0 0 0 0 0 0 0 0 0 0.1 0"/>
<feBlend mode="normal" in2="BackgroundImageFix" result="effect1_dropShadow_98_4161"/>
<feColorMatrix in="SourceAlpha" type="matrix" values="0 0 0 0 0 0 0 0 0 0 0 0 0 0 0 0 0 0 127 0" result="hardAlpha"/>
<feMorphology radius="3" operator="erode" in="SourceAlpha" result="effect2_dropShadow_98_4161"/>
<feOffset dy="10"/>
<feGaussianBlur stdDeviation="7.5"/>
<feComposite in2="hardAlpha" operator="out"/>
<feColorMatrix type="matrix" values="0 0 0 0 0 0 0 0 0 0 0 0 0 0 0 0 0 0 0.1 0"/>
<feBlend mode="normal" in2="effect1_dropShadow_98_4161" result="effect2_dropShadow_98_4161"/>
<feBlend mode="normal" in="SourceGraphic" in2="effect2_dropShadow_98_4161" result="shape"/>
</filter>
<linearGradient id="paint0_linear_98_4161" x1="34.5307" y1="23.8229" x2="34.5307" y2="31.275" gradientUnits="userSpaceOnUse">
<stop stop-color="#FFB300"/>
<stop offset="0.5" stop-color="#FFCA28"/>
</linearGradient>
<linearGradient id="paint1_linear_98_4161" x1="29.4684" y1="23.8229" x2="29.4684" y2="31.275" gradientUnits="userSpaceOnUse">
<stop stop-color="#FFB300"/>
<stop offset="0.5" stop-color="#FFCA28"/>
</linearGradient>
<radialGradient id="paint2_radial_98_4161" cx="0" cy="0" r="1" gradientUnits="userSpaceOnUse" gradientTransform="translate(32.8892 17.6881) scale(1.40811 0.691665)">
<stop offset="0.7275" stop-color="#6D4C41" stop-opacity="0"/>
<stop offset="1" stop-color="#6D4C41"/>
</radialGradient>
<radialGradient id="paint3_radial_98_4161" cx="0" cy="0" r="1" gradientUnits="userSpaceOnUse" gradientTransform="translate(34.2769 17.4782) rotate(154.924) scale(0.416107 0.308692)">
<stop offset="0.6628" stop-color="#6D4C41"/>
<stop offset="1" stop-color="#6D4C41" stop-opacity="0"/>
</radialGradient>
<radialGradient id="paint4_radial_98_4161" cx="0" cy="0" r="1" gradientUnits="userSpaceOnUse" gradientTransform="translate(33.1981 16.3019) rotate(-94.2783) scale(1.82779 1.52335)">
<stop offset="0.7247" stop-color="#6D4C41" stop-opacity="0"/>
<stop offset="1" stop-color="#6D4C41"/>
</radialGradient>
<radialGradient id="paint5_radial_98_4161" cx="0" cy="0" r="1" gradientUnits="userSpaceOnUse" gradientTransform="translate(30.8281 16.3017) rotate(-85.7217) scale(1.82779 1.52335)">
<stop offset="0.7247" stop-color="#6D4C41" stop-opacity="0"/>
<stop offset="1" stop-color="#6D4C41"/>
</radialGradient>
<radialGradient id="paint6_radial_98_4161" cx="0" cy="0" r="1" gradientUnits="userSpaceOnUse" gradientTransform="translate(31.1369 17.6881) rotate(180) scale(1.40811 0.691665)">
<stop offset="0.7275" stop-color="#6D4C41" stop-opacity="0"/>
<stop offset="1" stop-color="#6D4C41"/>
</radialGradient>
<radialGradient id="paint7_radial_98_4161" cx="0" cy="0" r="1" gradientUnits="userSpaceOnUse" gradientTransform="translate(29.7495 17.4784) rotate(25.0761) scale(0.416107 0.308692)">
<stop offset="0.6628" stop-color="#6D4C41"/>
<stop offset="1" stop-color="#6D4C41" stop-opacity="0"/>
</radialGradient>
<linearGradient id="paint8_linear_98_4161" x1="35.241" y1="18.0439" x2="37.737" y2="13.9562" gradientUnits="userSpaceOnUse">
<stop stop-color="#FFB300"/>
<stop offset="0.5" stop-color="#FFCA28"/>
</linearGradient>
<linearGradient id="paint9_linear_98_4161" x1="28.7326" y1="18.009" x2="26.2186" y2="13.9757" gradientUnits="userSpaceOnUse">
<stop stop-color="#FFB300"/>
<stop offset="0.5" stop-color="#FFCA28"/>
</linearGradient>
<linearGradient id="paint10_linear_98_4161" x1="31.9995" y1="18.5236" x2="31.9995" y2="23.481" gradientUnits="userSpaceOnUse">
<stop stop-color="#F78C1F"/>
<stop offset="0.4936" stop-color="#F37F20"/>
<stop offset="1" stop-color="#ED6D23"/>
</linearGradient>
<radialGradient id="paint11_radial_98_4161" cx="0" cy="0" r="1" gradientUnits="userSpaceOnUse" gradientTransform="translate(33.0955 15.3369) rotate(72.0851) scale(2.14246 1.58965)">
<stop offset="0.6985" stop-color="#6D4C41" stop-opacity="0"/>
<stop offset="1" stop-color="#6D4C41"/>
</radialGradient>
<radialGradient id="paint12_radial_98_4161" cx="0" cy="0" r="1" gradientUnits="userSpaceOnUse" gradientTransform="translate(31.0072 13.0014) rotate(28.2026) scale(0.561751 0.666073)">
<stop offset="0.58" stop-color="#6D4C41"/>
<stop offset="1" stop-color="#6D4C41" stop-opacity="0"/>
</radialGradient>
<radialGradient id="paint13_radial_98_4161" cx="0" cy="0" r="1" gradientUnits="userSpaceOnUse" gradientTransform="translate(32.263 14.0207) rotate(-157.19) scale(1.75688 0.987376)">
<stop offset="0.6985" stop-color="#6D4C41" stop-opacity="0"/>
<stop offset="1" stop-color="#6D4C41"/>
</radialGradient>
<radialGradient id="paint14_radial_98_4161" cx="0" cy="0" r="1" gradientUnits="userSpaceOnUse" gradientTransform="translate(30.7813 13.5136) scale(0.51562 0.630758)">
<stop offset="0.7016" stop-color="#6D4C41" stop-opacity="0"/>
<stop offset="1" stop-color="#6D4C41"/>
</radialGradient>
<radialGradient id="paint15_radial_98_4161" cx="0" cy="0" r="1" gradientUnits="userSpaceOnUse" gradientTransform="translate(30.7102 14.424) rotate(-164.942) scale(0.967073 0.905005)">
<stop offset="0.6605" stop-color="#6D4C41" stop-opacity="0"/>
<stop offset="1" stop-color="#6D4C41"/>
</radialGradient>
<radialGradient id="paint16_radial_98_4161" cx="0" cy="0" r="1" gradientUnits="userSpaceOnUse" gradientTransform="translate(30.4816 15.3574) rotate(7.83355) scale(1.01531 1.42668)">
<stop offset="0.5981" stop-color="#6D4C41" stop-opacity="0"/>
<stop offset="1" stop-color="#6D4C41"/>
</radialGradient>
<radialGradient id="paint17_radial_98_4161" cx="0" cy="0" r="1" gradientUnits="userSpaceOnUse" gradientTransform="translate(26.4369 13.6771) scale(1.10386)">
<stop stop-color="#FFB300"/>
<stop offset="0.5" stop-color="#FFCA28"/>
</radialGradient>
<linearGradient id="paint18_linear_98_4161" x1="31.9995" y1="12.5456" x2="31.9995" y2="13.7235" gradientUnits="userSpaceOnUse">
<stop stop-color="#BDBDBD"/>
<stop offset="1" stop-color="#757575"/>
</linearGradient>
<radialGradient id="paint19_radial_98_4161" cx="0" cy="0" r="1" gradientUnits="userSpaceOnUse" gradientTransform="translate(23.6129 11.2433) rotate(90) scale(4.26825 2.40018)">
<stop offset="0.3956" stop-color="#9E9E9E"/>
<stop offset="0.7899" stop-color="#646464"/>
</radialGradient>
<radialGradient id="paint20_radial_98_4161" cx="0" cy="0" r="1" gradientUnits="userSpaceOnUse" gradientTransform="translate(40.3864 11.2601) rotate(90) scale(4.26825 2.40018)">
<stop offset="0.3956" stop-color="#9E9E9E"/>
<stop offset="0.7899" stop-color="#646464"/>
</radialGradient>
<radialGradient id="paint21_radial_98_4161" cx="0" cy="0" r="1" gradientUnits="userSpaceOnUse" gradientTransform="translate(21.5433 12.0543) scale(0.918406 1.58856)">
<stop offset="0.4406" stop-color="#9E9E9E"/>
<stop offset="0.9854" stop-color="#646464"/>
</radialGradient>
<radialGradient id="paint22_radial_98_4161" cx="0" cy="0" r="1" gradientUnits="userSpaceOnUse" gradientTransform="translate(42.4392 12.0543) rotate(180) scale(0.918406 1.58856)">
<stop offset="0.4406" stop-color="#9E9E9E"/>
<stop offset="0.9854" stop-color="#646464"/>
</radialGradient>
<linearGradient id="paint23_linear_98_4161" x1="26.3216" y1="12.7883" x2="26.342" y2="12.144" gradientUnits="userSpaceOnUse">
<stop stop-color="#FFB300"/>
<stop offset="0.5" stop-color="#FFCA28"/>
</linearGradient>
<linearGradient id="paint24_linear_98_4161" x1="26.3625" y1="13.5088" x2="27.393" y2="12.9929" gradientUnits="userSpaceOnUse">
<stop stop-color="#FFB300"/>
<stop offset="0.4693" stop-color="#FFCA28"/>
</linearGradient>
<radialGradient id="paint25_radial_98_4161" cx="0" cy="0" r="1" gradientUnits="userSpaceOnUse" gradientTransform="translate(37.5856 13.6771) rotate(180) scale(1.10386)">
<stop stop-color="#FFB300"/>
<stop offset="0.5" stop-color="#FFCA28"/>
</radialGradient>
<linearGradient id="paint26_linear_98_4161" x1="37.7007" y1="12.7883" x2="37.6803" y2="12.144" gradientUnits="userSpaceOnUse">
<stop stop-color="#FFB300"/>
<stop offset="0.5" stop-color="#FFCA28"/>
</linearGradient>
<linearGradient id="paint27_linear_98_4161" x1="37.6601" y1="13.5088" x2="36.6297" y2="12.9929" gradientUnits="userSpaceOnUse">
<stop stop-color="#FFB300"/>
<stop offset="0.4693" stop-color="#FFCA28"/>
</linearGradient>
<clipPath id="clip0_98_4161">
<rect width="24" height="24" fill="white" transform="translate(20 10)"/>
</clipPath>
</defs>
</svg>
